<?xml version="1.0" standalone="no"?>
<!DOCTYPE svg PUBLIC "-//W3C//DTD SVG 20010904//EN"
 "http://www.w3.org/TR/2001/REC-SVG-20010904/DTD/svg10.dtd">
<svg version="1.0" xmlns="http://www.w3.org/2000/svg"
 width="270.000000pt" height="270.000000pt" viewBox="0 0 270.000000 270.000000"
 preserveAspectRatio="xMidYMid meet">
<metadata>
Created by potrace 1.14, written by Peter Selinger 2001-2017
</metadata>
<g transform="translate(0.000000,270.000000) scale(0.100000,-0.100000)"
fill="#000000" stroke="none">
<path d="M0 1350 l0 -1350 1350 0 1350 0 0 1350 0 1350 -1350 0 -1350 0 0
-1350z m1850 133 c0 -360 2 -391 19 -430 38 -82 135 -96 274 -38 15 6 17 -1
17 -73 l0 -79 -70 -23 c-57 -18 -86 -22 -153 -18 -96 5 -149 28 -195 83 -60
74 -65 106 -70 473 l-4 332 -114 0 -114 0 0 80 0 80 205 0 205 0 0 -387z
m-952 111 c12 -8 29 -29 38 -46 l16 -30 36 35 c50 47 72 57 127 57 59 0 97
-22 127 -74 23 -40 23 -46 26 -373 l3 -333 -80 0 -80 0 -3 294 c-3 273 -4 295
-22 315 -25 27 -64 27 -93 -1 l-23 -21 0 -294 0 -293 -69 0 -70 0 -3 288 c-3
303 -6 324 -50 338 -17 5 -29 -1 -55 -30 l-33 -36 0 -280 0 -280 -80 0 -80 0
0 385 0 385 64 0 64 0 7 -38 c10 -62 20 -68 44 -29 43 69 135 99 189 61z"/>
</g>
</svg>
